<svg viewBox="0 0 100 100" xmlns="http://www.w3.org/2000/svg" >
  <g>
    <circle cx="18" cy="82" r="8" fill="rgb(255, 102, 0)"/>
    <circle cx="36" cy="82" r="8" fill="rgb(130, 130, 130)"/>
    <circle cx="54" cy="82" r="8" fill="rgb(95,153,207)"/>
  </g>
  <g>
    <path fill="rgb(130, 130, 130)"
          d="M35,10
             a 25 25 0 1 0 1 0
             m0 5
             a 20 20 0 1 1 -1 0

             M 65,50
             A 30 30 0 0 1 50 65
             L 80,84
             A 8 8 0 0 1 84 80
             z"/>
    <rect fill="rgb(130, 130, 130)" x="25" y="23" width="10" height="4" rx="2" ry="2"/>
    <rect fill="rgb(130, 130, 130)" x="37" y="23" width="8" height="4" rx="2" ry="2"/>
    <rect fill="rgb(130, 130, 130)" x="20" y="33" width="5" height="4" rx="2" ry="2"/>
    <rect fill="rgb(130, 130, 130)" x="27" y="33" width="23" height="4" rx="2" ry="2"/>
    <rect fill="rgb(130, 130, 130)" x="25" y="43" width="20" height="4" rx="2" ry="2"/>
  </g>
</svg>
